<?xml version="1.0" encoding="UTF-8"?>
<svg width="1159px" height="165px" viewBox="0 0 1159 165" version="1.1" xmlns="http://www.w3.org/2000/svg" xmlns:xlink="http://www.w3.org/1999/xlink">
    <!-- Generator: Sketch 47.1 (45422) - http://www.bohemiancoding.com/sketch -->
    <title>asta works</title>
    <desc>Created with Sketch.</desc>
    <defs></defs>
    <g id="Symbols" stroke="none" stroke-width="1" fill="none" fill-rule="evenodd">
        <g id="aw-logo-full" transform="translate(-426.000000, -176.000000)" stroke-width="5" stroke="#F58664" fill="#000000">
            <g id="asta-works">
                <path d="M547.175781,221.78125 L547.175781,336 L532.688477,336 L532.688477,316.368652 C526.529592,323.857297 519.618447,329.491192 511.954834,333.270508 C504.291221,337.049824 495.910365,338.939453 486.812012,338.939453 C470.644939,338.939453 456.840145,333.078102 445.397217,321.355225 C433.954288,309.632347 428.23291,295.372643 428.23291,278.575684 C428.23291,262.128661 434.006778,248.061419 445.554688,236.373535 C457.102597,224.685651 470.994873,218.841797 487.231934,218.841797 C496.610236,218.841797 505.096072,220.836406 512.689697,224.825684 C520.283322,228.814961 526.949516,234.798788 532.688477,242.777344 L532.688477,221.78125 L547.175781,221.78125 Z M488.386719,233.01416 C480.198201,233.01416 472.639683,235.026266 465.710938,239.050537 C458.782192,243.074809 453.270772,248.726201 449.176514,256.004883 C445.082255,263.283565 443.035156,270.982056 443.035156,279.100586 C443.035156,287.149129 445.099751,294.84762 449.229004,302.196289 C453.358256,309.544959 458.904669,315.266337 465.868408,319.360596 C472.832147,323.454854 480.303183,325.501953 488.281738,325.501953 C496.330281,325.501953 503.958786,323.472351 511.16748,319.413086 C518.376175,315.353821 523.922588,309.859898 527.806885,302.931152 C531.691182,296.002407 533.633301,288.198937 533.633301,279.520508 C533.633301,266.292903 529.276655,255.23507 520.563232,246.34668 C511.84981,237.458289 501.124413,233.01416 488.386719,233.01416 Z M647.668945,234.273926 L638.220703,244.037109 C630.382122,236.408491 622.718625,232.594238 615.22998,232.594238 C610.470842,232.594238 606.394141,234.16893 602.999756,237.318359 C599.60537,240.467789 597.908203,244.142069 597.908203,248.341309 C597.908203,252.050637 599.307929,255.584944 602.107422,258.944336 C604.906915,262.373715 610.785763,266.397926 619.744141,271.01709 C630.662164,276.686064 638.08071,282.144993 642,287.394043 C645.849303,292.71308 647.773926,298.696907 647.773926,305.345703 C647.773926,314.724005 644.484571,322.667448 637.905762,329.17627 C631.326953,335.685091 623.103565,338.939453 613.235352,338.939453 C606.656543,338.939453 600.375274,337.504734 594.391357,334.635254 C588.407441,331.765773 583.455912,327.811549 579.536621,322.772461 L588.774902,312.274414 C596.263547,320.742881 604.206989,324.977051 612.605469,324.977051 C618.484404,324.977051 623.488423,323.087421 627.617676,319.308105 C631.746928,315.52879 633.811523,311.084661 633.811523,305.975586 C633.811523,301.776346 632.446791,298.03208 629.717285,294.742676 C626.987779,291.523259 620.828987,287.464054 611.240723,282.564941 C600.952585,277.245904 593.953957,271.996933 590.244629,266.817871 C586.5353,261.638809 584.680664,255.724968 584.680664,249.076172 C584.680664,240.397743 587.637584,233.189156 593.551514,227.450195 C599.465443,221.711234 606.936478,218.841797 615.964844,218.841797 C626.462943,218.841797 637.030871,223.985788 647.668945,234.273926 Z M696.511719,179.369141 L711.313965,179.369141 L711.313965,221.78125 L734.619629,221.78125 L734.619629,234.378906 L711.313965,234.378906 L711.313965,336 L696.511719,336 L696.511719,234.378906 L676.460449,234.378906 L676.460449,221.78125 L696.511719,221.78125 L696.511719,179.369141 Z M880.359375,221.78125 L880.359375,336 L865.87207,336 L865.87207,316.368652 C859.713185,323.857297 852.80204,329.491192 845.138428,333.270508 C837.474815,337.049824 829.093958,338.939453 819.995605,338.939453 C803.828532,338.939453 790.023739,333.078102 778.580811,321.355225 C767.137882,309.632347 761.416504,295.372643 761.416504,278.575684 C761.416504,262.128661 767.190372,248.061419 778.738281,236.373535 C790.286191,224.685651 804.178467,218.841797 820.415527,218.841797 C829.793829,218.841797 838.279666,220.836406 845.873291,224.825684 C853.466916,228.814961 860.133109,234.798788 865.87207,242.777344 L865.87207,221.78125 L880.359375,221.78125 Z M821.570312,233.01416 C813.381795,233.01416 805.823277,235.026266 798.894531,239.050537 C791.965786,243.074809 786.454366,248.726201 782.360107,256.004883 C778.265849,263.283565 776.21875,270.982056 776.21875,279.100586 C776.21875,287.149129 778.283345,294.84762 782.412598,302.196289 C786.54185,309.544959 792.088263,315.266337 799.052002,319.360596 C806.015741,323.454854 813.486777,325.501953 821.465332,325.501953 C829.513875,325.501953 837.142379,323.472351 844.351074,319.413086 C851.559769,315.353821 857.106182,309.859898 860.990479,302.931152 C864.874775,296.002407 866.816895,288.198937 866.816895,279.520508 C866.816895,266.292903 862.460249,255.23507 853.746826,246.34668 C845.033404,237.458289 834.308006,233.01416 821.570312,233.01416 Z M977.52002,221.78125 L992.637207,221.78125 L1027.5957,304.71582 L1064.23389,221.78125 L1066.8584,221.78125 L1103.3916,304.71582 L1138.97998,221.78125 L1154.30713,221.78125 L1104.75635,336 L1101.92188,336 L1065.59863,254.220215 L1028.96045,336 L1026.23096,336 L977.52002,221.78125 Z M1235.69385,218.841797 C1253.26067,218.841797 1267.81781,225.210548 1279.36572,237.948242 C1289.86382,249.566139 1295.11279,263.318443 1295.11279,279.205566 C1295.11279,295.162677 1289.56638,309.107444 1278.47339,321.040283 C1267.3804,332.973123 1253.12069,338.939453 1235.69385,338.939453 C1218.19702,338.939453 1203.90232,332.973123 1192.80933,321.040283 C1181.71633,309.107444 1176.16992,295.162677 1176.16992,279.205566 C1176.16992,263.38843 1181.41889,249.671119 1191.91699,238.053223 C1203.4649,225.245541 1218.05704,218.841797 1235.69385,218.841797 Z M1235.69385,233.224121 C1223.51605,233.224121 1213.0531,237.738236 1204.30469,246.766602 C1195.55627,255.794967 1191.18213,266.712827 1191.18213,279.520508 C1191.18213,287.779013 1193.17674,295.477503 1197.16602,302.616211 C1201.15529,309.754919 1206.54424,315.266338 1213.33301,319.150635 C1220.12178,323.034932 1227.57532,324.977051 1235.69385,324.977051 C1243.81238,324.977051 1251.26592,323.034932 1258.05469,319.150635 C1264.84346,315.266338 1270.2324,309.754919 1274.22168,302.616211 C1278.21096,295.477503 1280.20557,287.779013 1280.20557,279.520508 C1280.20557,266.712827 1275.81393,255.794967 1267.03052,246.766602 C1258.24711,237.738236 1247.80166,233.224121 1235.69385,233.224121 Z M1326.84375,221.78125 L1341.85596,221.78125 L1341.85596,238.473145 C1346.33515,231.894336 1351.05922,226.977799 1356.02832,223.723389 C1360.99742,220.468978 1366.17641,218.841797 1371.56543,218.841797 C1375.62469,218.841797 1379.96384,220.136543 1384.58301,222.726074 L1376.91943,235.11377 C1373.83999,233.78401 1371.2505,233.119141 1369.15088,233.119141 C1364.25177,233.119141 1359.52769,235.131246 1354.97852,239.155518 C1350.42934,243.179789 1346.96502,249.426064 1344.58545,257.894531 C1342.76578,264.403353 1341.85596,277.560773 1341.85596,297.367188 L1341.85596,336 L1326.84375,336 L1326.84375,221.78125 Z M1406.9707,177.689453 L1421.77295,177.689453 L1421.77295,267.762695 L1474.57812,221.78125 L1496.2041,221.78125 L1433.53076,276.266113 L1499.87842,336 L1479.09229,336 L1421.77295,284.664551 L1421.77295,336 L1406.9707,336 L1406.9707,177.689453 Z M1582.41992,234.273926 L1572.97168,244.037109 C1565.1331,236.408491 1557.4696,232.594238 1549.98096,232.594238 C1545.22182,232.594238 1541.14512,234.16893 1537.75073,237.318359 C1534.35635,240.467789 1532.65918,244.142069 1532.65918,248.341309 C1532.65918,252.050637 1534.05891,255.584944 1536.8584,258.944336 C1539.65789,262.373715 1545.53674,266.397926 1554.49512,271.01709 C1565.41314,276.686064 1572.83169,282.144993 1576.75098,287.394043 C1580.60028,292.71308 1582.5249,298.696907 1582.5249,305.345703 C1582.5249,314.724005 1579.23555,322.667448 1572.65674,329.17627 C1566.07793,335.685091 1557.85454,338.939453 1547.98633,338.939453 C1541.40752,338.939453 1535.12625,337.504734 1529.14233,334.635254 C1523.15842,331.765773 1518.20689,327.811549 1514.2876,322.772461 L1523.52588,312.274414 C1531.01452,320.742881 1538.95797,324.977051 1547.35645,324.977051 C1553.23538,324.977051 1558.2394,323.087421 1562.36865,319.308105 C1566.4979,315.52879 1568.5625,311.084661 1568.5625,305.975586 C1568.5625,301.776346 1567.19777,298.03208 1564.46826,294.742676 C1561.73876,291.523259 1555.57996,287.464054 1545.9917,282.564941 C1535.70356,277.245904 1528.70493,271.996933 1524.99561,266.817871 C1521.28628,261.638809 1519.43164,255.724968 1519.43164,249.076172 C1519.43164,240.397743 1522.38856,233.189156 1528.30249,227.450195 C1534.21642,221.711234 1541.68745,218.841797 1550.71582,218.841797 C1561.21392,218.841797 1571.78185,223.985788 1582.41992,234.273926 Z"></path>
            </g>
        </g>
    </g>
</svg>