<svg width="1159" height="165" viewBox="0 0 1159 165" xmlns="http://www.w3.org/2000/svg"><title>asta works</title><path d="M121.176 45.781V160h-14.488v-19.631c-6.158 7.488-13.07 13.122-20.733 16.902-7.664 3.779-16.045 5.668-25.143 5.668-16.167 0-29.972-5.86-41.415-17.584-11.443-11.723-17.164-25.982-17.164-42.78 0-16.446 5.774-30.514 17.322-42.201 11.548-11.688 25.44-17.532 41.677-17.532 9.378 0 17.864 1.994 25.458 5.984 7.593 3.989 14.26 9.973 19.998 17.951V45.781h14.488zm-58.79 11.233c-8.188 0-15.746 2.012-22.675 6.037-6.929 4.024-12.44 9.675-16.534 16.954-4.095 7.279-6.142 14.977-6.142 23.096 0 8.048 2.065 15.747 6.194 23.095 4.13 7.349 9.676 13.07 16.64 17.165 6.963 4.094 14.434 6.141 22.413 6.141 8.048 0 15.677-2.03 22.885-6.089 7.21-4.06 12.756-9.553 16.64-16.482 3.884-6.929 5.826-14.732 5.826-23.41 0-13.228-4.356-24.286-13.07-33.174-8.713-8.889-19.439-13.333-32.176-13.333zm159.283 1.26l-9.448 9.763c-7.839-7.629-15.502-11.443-22.991-11.443-4.76 0-8.836 1.575-12.23 4.724-3.395 3.15-5.092 6.824-5.092 11.023 0 3.71 1.4 7.244 4.2 10.603 2.799 3.43 8.678 7.454 17.636 12.073 10.918 5.67 18.337 11.128 22.256 16.377 3.85 5.32 5.774 11.303 5.774 17.952 0 9.378-3.29 17.321-9.868 23.83-6.579 6.51-14.802 9.763-24.67 9.763-6.58 0-12.86-1.434-18.845-4.304-5.984-2.87-10.935-6.823-14.854-11.863l9.238-10.498c7.489 8.469 15.432 12.703 23.83 12.703 5.88 0 10.883-1.89 15.013-5.669 4.129-3.78 6.194-8.223 6.194-13.332 0-4.2-1.365-7.944-4.095-11.233-2.73-3.22-8.888-7.279-18.476-12.178-10.288-5.32-17.287-10.568-20.996-15.747-3.71-5.18-5.564-11.093-5.564-17.742 0-8.678 2.957-15.887 8.87-21.626 5.914-5.739 13.385-8.608 22.414-8.608 10.498 0 21.066 5.144 31.704 15.432zm48.843-54.905h14.802v42.412h23.306V58.38h-23.306V160h-14.802V58.379H250.46V45.78h20.052V3.37zm183.847 42.412V160h-14.487v-19.631c-6.159 7.488-13.07 13.122-20.734 16.902-7.663 3.779-16.044 5.668-25.142 5.668-16.167 0-29.972-5.86-41.415-17.584-11.443-11.723-17.164-25.982-17.164-42.78 0-16.446 5.773-30.514 17.321-42.201 11.548-11.688 25.44-17.532 41.678-17.532 9.378 0 17.864 1.994 25.457 5.984 7.594 3.989 14.26 9.973 20 17.951V45.781h14.486zM395.57 57.014c-8.188 0-15.747 2.012-22.675 6.037-6.93 4.024-12.44 9.675-16.535 16.954-4.094 7.279-6.141 14.977-6.141 23.096 0 8.048 2.064 15.747 6.194 23.095 4.129 7.349 9.675 13.07 16.639 17.165 6.964 4.094 14.435 6.141 22.413 6.141 8.049 0 15.677-2.03 22.886-6.089 7.209-4.06 12.755-9.553 16.64-16.482 3.884-6.929 5.826-14.732 5.826-23.41 0-13.228-4.357-24.286-13.07-33.174-8.714-8.889-19.439-13.333-32.177-13.333zm155.95-11.233h15.117l34.959 82.935 36.638-82.935h2.624l36.534 82.935L712.98 45.78h15.327L678.757 160h-2.835l-36.323-81.78L602.96 160h-2.729L551.52 45.781zm258.174-2.94c17.567 0 32.124 6.37 43.672 19.107 10.498 11.618 15.747 25.37 15.747 41.258 0 15.957-5.547 29.901-16.64 41.834-11.093 11.933-25.352 17.9-42.78 17.9-17.496 0-31.79-5.967-42.884-17.9-11.093-11.933-16.64-25.877-16.64-41.834 0-15.818 5.25-29.535 15.748-41.153 11.548-12.807 26.14-19.211 43.777-19.211zm0 14.383c-12.178 0-22.64 4.514-31.39 13.543-8.748 9.028-13.122 19.946-13.122 32.754 0 8.258 1.995 15.957 5.984 23.095 3.99 7.139 9.378 12.65 16.167 16.535 6.789 3.884 14.242 5.826 22.36 5.826 8.12 0 15.573-1.942 22.362-5.826 6.788-3.885 12.177-9.396 16.167-16.535 3.989-7.138 5.984-14.837 5.984-23.095 0-12.808-4.392-23.726-13.175-32.754-8.784-9.029-19.23-13.543-31.337-13.543zm91.15-11.443h15.012v16.692c4.48-6.579 9.203-11.495 14.172-14.75 4.97-3.254 10.148-4.881 15.537-4.881 4.06 0 8.399 1.295 13.018 3.884l-7.664 12.388c-3.079-1.33-5.668-1.995-7.768-1.995-4.9 0-9.623 2.012-14.172 6.037-4.55 4.024-8.014 10.27-10.394 18.739-1.82 6.508-2.729 19.666-2.729 39.472V160h-15.012V45.781zM980.97 1.69h14.802v90.074l52.805-45.982h21.626l-62.673 54.485L1073.878 160h-20.786l-57.32-51.335V160h-14.801V1.69zm175.449 56.585l-9.448 9.763c-7.839-7.629-15.502-11.443-22.991-11.443-4.76 0-8.836 1.575-12.23 4.724-3.395 3.15-5.092 6.824-5.092 11.023 0 3.71 1.4 7.244 4.2 10.603 2.799 3.43 8.678 7.454 17.636 12.073 10.918 5.67 18.337 11.128 22.256 16.377 3.85 5.32 5.774 11.303 5.774 17.952 0 9.378-3.29 17.321-9.868 23.83-6.58 6.51-14.802 9.763-24.67 9.763-6.58 0-12.86-1.434-18.845-4.304-5.984-2.87-10.935-6.823-14.854-11.863l9.238-10.498c7.489 8.469 15.432 12.703 23.83 12.703 5.88 0 10.883-1.89 15.013-5.669 4.129-3.78 6.194-8.223 6.194-13.332 0-4.2-1.365-7.944-4.095-11.233-2.73-3.22-8.888-7.279-18.476-12.178-10.288-5.32-17.287-10.568-20.996-15.747-3.71-5.18-5.564-11.093-5.564-17.742 0-8.678 2.957-15.887 8.87-21.626 5.914-5.739 13.385-8.608 22.414-8.608 10.498 0 21.066 5.144 31.704 15.432z" stroke-width="5" stroke="#F58664" fill-rule="evenodd"/></svg>