<svg width="19" height="19" viewBox="0 0 19 19" xmlns="http://www.w3.org/2000/svg" xmlns:xlink="http://www.w3.org/1999/xlink"><title>instagram</title><defs><path id="a" d="M.008.105V19h18.887V.105H.008z"/></defs><g fill="none" fill-rule="evenodd"><mask id="b" fill="#fff"><use xlink:href="#a"/></mask><path d="M13.68.105H5.215A5.22 5.22 0 0 0 0 5.319v8.467A5.22 5.22 0 0 0 5.214 19h8.467a5.22 5.22 0 0 0 5.214-5.214V5.319A5.22 5.22 0 0 0 13.681.105zm3.539 13.68a3.542 3.542 0 0 1-3.538 3.539H5.214a3.542 3.542 0 0 1-3.538-3.538V5.319a3.542 3.542 0 0 1 3.538-3.538h8.467a3.542 3.542 0 0 1 3.538 3.538v8.467z" fill="#FFF" mask="url(#b)"/><path d="M9.448 4.684a4.874 4.874 0 0 0-4.87 4.868 4.874 4.874 0 0 0 4.87 4.87 4.875 4.875 0 0 0 4.869-4.87 4.874 4.874 0 0 0-4.87-4.868zm0 8.06a3.196 3.196 0 0 1-3.193-3.192A3.196 3.196 0 0 1 9.448 6.36a3.196 3.196 0 0 1 3.192 3.192 3.196 3.196 0 0 1-3.192 3.192zm5.072-9.482a1.233 1.233 0 0 0-1.229 1.23c0 .323.132.64.361.87.228.227.546.359.869.359.324 0 .64-.132.869-.36a1.232 1.232 0 0 0 0-1.739 1.234 1.234 0 0 0-.87-.36z" fill="#FFF"/></g></svg>