<svg width="1474" height="313" viewBox="0 0 1474 313" xmlns="http://www.w3.org/2000/svg" xmlns:xlink="http://www.w3.org/1999/xlink"><title>logo-f</title><defs><path id="a" d="M219 0H0v313h219V0z"/><path id="c" d="M0 313h229.757V.202H0z"/></defs><g fill="none" fill-rule="evenodd"><path d="M437.943 120.092V234.31h-14.487v-19.632c-6.16 7.489-13.07 13.123-20.734 16.902-7.664 3.78-16.045 5.669-25.143 5.669-16.167 0-29.972-5.861-41.415-17.584C324.721 207.943 319 193.683 319 176.886c0-16.447 5.774-30.514 17.322-42.202 11.548-11.688 25.44-17.532 41.677-17.532 9.378 0 17.864 1.995 25.458 5.984 7.593 3.99 14.26 9.973 19.999 17.952v-20.996h14.487zm-58.79 11.233c-8.188 0-15.746 2.012-22.675 6.036-6.929 4.024-12.44 9.676-16.534 16.954-4.095 7.28-6.142 14.978-6.142 23.096 0 8.049 2.065 15.747 6.194 23.096 4.13 7.349 9.676 13.07 16.64 17.164 6.963 4.094 14.434 6.142 22.413 6.142 8.048 0 15.677-2.03 22.886-6.09 7.208-4.059 12.755-9.553 16.639-16.481 3.884-6.929 5.826-14.733 5.826-23.41 0-13.229-4.356-24.286-13.07-33.175-8.713-8.888-19.438-13.332-32.176-13.332zm159.283 1.26l-9.448 9.763c-7.839-7.629-15.502-11.443-22.99-11.443-4.76 0-8.837 1.574-12.231 4.724-3.395 3.15-5.092 6.824-5.092 11.023 0 3.71 1.4 7.243 4.2 10.603 2.799 3.43 8.678 7.453 17.636 12.073 10.918 5.669 18.337 11.128 22.256 16.377 3.85 5.319 5.774 11.302 5.774 17.951 0 9.379-3.29 17.322-9.868 23.83-6.579 6.51-14.802 9.764-24.67 9.764-6.58 0-12.86-1.435-18.845-4.304-5.983-2.87-10.935-6.824-14.854-11.863l9.238-10.498c7.489 8.468 15.432 12.703 23.83 12.703 5.88 0 10.884-1.89 15.013-5.67 4.129-3.779 6.194-8.223 6.194-13.332 0-4.2-1.365-7.943-4.095-11.233-2.73-3.22-8.888-7.278-18.476-12.178-10.288-5.319-17.287-10.568-20.996-15.747-3.71-5.179-5.564-11.092-5.564-17.741 0-8.679 2.957-15.887 8.87-21.626 5.915-5.74 13.386-8.609 22.414-8.609 10.498 0 21.066 5.144 31.704 15.432zm48.843-54.905h14.802v42.412h23.306v12.597H602.08v101.622h-14.8V132.689h-20.051v-12.597h20.05V77.68zm183.847 42.412V234.31H756.64v-19.632c-6.159 7.489-13.07 13.123-20.733 16.902-7.664 3.78-16.045 5.669-25.143 5.669-16.167 0-29.972-5.861-41.415-17.584-11.443-11.723-17.164-25.983-17.164-42.78 0-16.447 5.773-30.514 17.321-42.202 11.548-11.688 25.44-17.532 41.678-17.532 9.378 0 17.864 1.995 25.457 5.984 7.594 3.99 14.26 9.973 20 17.952v-20.996h14.486zm-58.789 11.233c-8.188 0-15.747 2.012-22.675 6.036-6.93 4.024-12.44 9.676-16.535 16.954-4.094 7.28-6.141 14.978-6.141 23.096 0 8.049 2.064 15.747 6.194 23.096 4.129 7.349 9.675 13.07 16.64 17.164 6.963 4.094 14.434 6.142 22.412 6.142 8.049 0 15.677-2.03 22.886-6.09 7.209-4.059 12.755-9.553 16.64-16.481 3.884-6.929 5.826-14.733 5.826-23.41 0-13.229-4.357-24.286-13.07-33.175-8.714-8.888-19.439-13.332-32.177-13.332zm155.95-11.233h15.117l34.959 82.934L955 120.092h2.624l36.534 82.934 35.588-82.934h15.327l-49.55 114.219h-2.835l-36.323-81.78-36.638 81.78h-2.73l-48.71-114.22zm258.174-2.94c17.567 0 32.124 6.37 43.672 19.107 10.498 11.618 15.747 25.37 15.747 41.257 0 15.957-5.547 29.902-16.64 41.835s-25.352 17.899-42.78 17.899c-17.496 0-31.79-5.966-42.884-17.9-11.093-11.932-16.639-25.877-16.639-41.834 0-15.817 5.249-29.534 15.747-41.152 11.548-12.808 26.14-19.212 43.777-19.212zm0 14.383c-12.178 0-22.64 4.514-31.39 13.542-8.748 9.029-13.122 19.946-13.122 32.754 0 8.259 1.995 15.957 5.984 23.096 3.99 7.138 9.378 12.65 16.167 16.534 6.789 3.884 14.242 5.827 22.36 5.827 8.12 0 15.573-1.943 22.362-5.827 6.789-3.884 12.177-9.396 16.167-16.534 3.989-7.139 5.984-14.837 5.984-23.096 0-12.808-4.392-23.725-13.175-32.754-8.784-9.028-19.23-13.542-31.337-13.542zm91.15-11.443h15.012v16.692c4.48-6.58 9.203-11.496 14.172-14.75 4.97-3.254 10.149-4.882 15.538-4.882 4.059 0 8.398 1.295 13.017 3.885l-7.663 12.387c-3.08-1.33-5.67-1.994-7.769-1.994-4.9 0-9.623 2.012-14.172 6.036-4.55 4.024-8.014 10.27-10.393 18.74-1.82 6.508-2.73 19.665-2.73 39.472v38.633h-15.012V120.09zM1297.738 76h14.802v90.073l52.805-45.981h21.626l-62.673 54.485 66.348 59.734h-20.787l-57.319-51.336v51.336h-14.802V76zm175.449 56.584l-9.448 9.764c-7.839-7.629-15.502-11.443-22.991-11.443-4.76 0-8.836 1.574-12.23 4.724-3.395 3.15-5.092 6.824-5.092 11.023 0 3.71 1.4 7.243 4.2 10.603 2.799 3.43 8.678 7.453 17.636 12.073 10.918 5.669 18.337 11.128 22.256 16.377 3.85 5.319 5.774 11.302 5.774 17.951 0 9.379-3.29 17.322-9.868 23.83-6.579 6.51-14.802 9.764-24.67 9.764-6.58 0-12.86-1.435-18.845-4.304-5.983-2.87-10.935-6.824-14.854-11.863l9.238-10.498c7.489 8.468 15.432 12.703 23.83 12.703 5.88 0 10.883-1.89 15.013-5.67 4.129-3.779 6.194-8.223 6.194-13.332 0-4.2-1.365-7.943-4.095-11.233-2.73-3.22-8.888-7.278-18.476-12.178-10.288-5.319-17.287-10.568-20.996-15.747-3.71-5.179-5.564-11.092-5.564-17.741 0-8.679 2.957-15.887 8.87-21.626 5.915-5.74 13.386-8.609 22.414-8.609 10.498 0 21.066 5.144 31.704 15.432z" stroke="#F58664" stroke-width="5" fill="#FC8562"/><mask id="b" fill="#fff"><use xlink:href="#a"/></mask><path d="M219 208.086C219 266.026 169.975 313 109.5 313S0 266.027 0 208.086C0 150.142 109.5 0 109.5 0S219 150.142 219 208.086" fill="#FC8562" mask="url(#b)"/><g mask="url(#b)"><g transform="translate(-1)"><mask id="d" fill="#fff"><use xlink:href="#c"/></mask><path d="M0 203.21v-34.343h229.757v34.343H0zm0 64.368v-30.024h229.757v30.024H0zM110.624 65.835c2.552-2.453 37.442 67.051 37.442 67.051h-24.678v35.98H98.709v-35.98H74.884l35.74-67.05z" fill="#FFF" mask="url(#d)"/></g></g></g></svg>