<svg width="21" height="30" viewBox="0 0 21 30" xmlns="http://www.w3.org/2000/svg" xmlns:xlink="http://www.w3.org/1999/xlink"><title>logo-mini</title><defs><path id="a" d="M20.977.115H.104V30h20.873V.115z"/><path id="c" d="M0 30h21.977V.115H0z"/></defs><g fill="none" fill-rule="evenodd"><mask id="b" fill="#fff"><use xlink:href="#a"/></mask><path d="M20.977 19.983C20.977 25.515 16.305 30 10.541 30S.104 25.515.104 19.983C.104 14.45 10.54.115 10.54.115S20.977 14.45 20.977 19.983" fill="#FFF" mask="url(#b)"/><g mask="url(#b)"><mask id="d" fill="#fff"><use xlink:href="#c"/></mask><path d="M0 19.51v-3.28h21.977v3.28H0zm0 6.15v-2.868h21.977v2.868H0zM10.581 6.386c.245-.235 3.582 6.406 3.582 6.406h-2.36v3.437H9.441v-3.437h-2.28l3.42-6.406z" fill="#303A88" mask="url(#d)"/></g></g></svg>